<?xml version="1.0" encoding="utf-8"?>
<svg class="chart-svg woodblock-chart" data-style="kinpeki-ukiyo" role="img" aria-labelledby="chart-3-title chart-3-desc" xmlns="http://www.w3.org/2000/svg" viewBox="0 0 360 190" width="360" height="190">
  <style>:root{--paper:#fbf3de;--ink:#181a1b;--muted:#655f53;--rule:#c8b990;--vermilion:#e24832;--aizuri:#0069a6;--rokusho:#3a8a5c;--kuchiba:#e2a228;--fuji:#8d4b8e;--gold:#e0b53a}
*{vector-effect:non-scaling-stroke}
text{font-family:"Source Han Sans SC","Noto Sans CJK SC","PingFang SC","Microsoft YaHei",sans-serif;fill:var(--ink)}
.label,.value,.value-light,.big-value,.note,.tick,.axis-title{font-size:12px}
.value,.big-value{font-weight:700;font-variant-numeric:tabular-nums}.big-value{font-size:18px}
.value-light{font-weight:700;fill:var(--paper)}.tick,.axis-title{fill:var(--muted)}
.axis{stroke:var(--ink);stroke-width:1}.grid{stroke:var(--rule);stroke-width:.8;stroke-dasharray:2 5;opacity:.7}
.reference,.stem{stroke:var(--ink);stroke-width:1.1}.red{stroke:var(--vermilion);stroke-width:2.5;stroke-dasharray:8 5}.blue{stroke:var(--aizuri);stroke-width:2.5}.green{stroke:var(--rokusho);stroke-width:2.5;stroke-dasharray:2 4}.gold{stroke:var(--kuchiba);stroke-width:2.5;stroke-dasharray:1 4}
[fill="#0069a6"],[fill="#e24832"],[fill="#3a8a5c"],[fill="#e2a228"],[fill="#8d4b8e"],[fill="#8cc7df"],[fill="#f5a08b"],[fill="#9ed0ab"]{stroke:var(--ink);stroke-width:.65;stroke-linejoin:round;paint-order:stroke fill}
[stroke="#e24832"]{stroke-dasharray:8 5}[stroke="#3a8a5c"]{stroke-dasharray:2 4}[stroke="#e2a228"]{stroke-dasharray:1 4}
path,polyline,line{stroke-linecap:round;stroke-linejoin:round}</style><rect class="ukiyo-paper" x="0" y="0" width="360" height="190" fill="#fbf3de"/><rect class="ukiyo-paper" x="0" y="0" width="360" height="190" fill="#fbf3de"/><rect class="ukiyo-paper" x="0" y="0" width="360" height="190" fill="#fbf3de"/>
  <title id="chart-3-title">Time line + column chart</title>
  <desc id="chart-3-desc">Do a total and a rate change together?</desc>
  <line x1="38" y1="158" x2="340" y2="158" class="axis"/>
  <line x1="38" y1="20" x2="38" y2="158" class="axis"/>
  <text x="189" y="184" class="axis-title" text-anchor="middle" data-axis="x">Month</text>
  <text x="12" y="90" class="axis-title" text-anchor="middle" transform="rotate(-90 12 90)" data-axis="y">Total / rate</text>
  <rect x="44" y="114.25" width="13" height="43.75" fill="#9ed0ab"/>
  <rect x="69" y="109" width="13" height="49" fill="#9ed0ab"/>
  <rect x="94" y="103.75" width="13" height="54.25" fill="#9ed0ab"/>
  <rect x="119" y="105.5" width="13" height="52.5" fill="#9ed0ab"/>
  <rect x="144" y="98.5" width="13" height="59.5" fill="#9ed0ab"/>
  <rect x="169" y="91.5" width="13" height="66.5" fill="#9ed0ab"/>
  <rect x="194" y="93.25" width="13" height="64.75" fill="#9ed0ab"/>
  <rect x="219" y="82.75" width="13" height="75.25" fill="#9ed0ab"/>
  <rect x="244" y="77.5" width="13" height="80.5" fill="#9ed0ab"/>
  <rect x="269" y="74" width="13" height="84" fill="#9ed0ab"/>
  <rect x="294" y="67" width="13" height="91" fill="#9ed0ab"/>
  <rect x="319" y="61.75" width="13" height="96.25" fill="#9ed0ab"/>
  <polyline points="50,97.2 75,92.25 100,93.9 125,82.35000000000001 150,77.4 175,80.7 200,67.5 225,60.900000000000006 250,65.85000000000001 275,52.650000000000006 300,46.05000000000001 325,37.80000000000001" fill="none" stroke="#e24832" stroke-width="2.5"/>
  <circle cx="50" cy="97.2" r="2.8" fill="#fbf3de" stroke="#e24832" stroke-width="2"/>
  <circle cx="75" cy="92.25" r="2.8" fill="#fbf3de" stroke="#e24832" stroke-width="2"/>
  <circle cx="100" cy="93.9" r="2.8" fill="#fbf3de" stroke="#e24832" stroke-width="2"/>
  <circle cx="125" cy="82.35000000000001" r="2.8" fill="#fbf3de" stroke="#e24832" stroke-width="2"/>
  <circle cx="150" cy="77.4" r="2.8" fill="#fbf3de" stroke="#e24832" stroke-width="2"/>
  <circle cx="175" cy="80.7" r="2.8" fill="#fbf3de" stroke="#e24832" stroke-width="2"/>
  <circle cx="200" cy="67.5" r="2.8" fill="#fbf3de" stroke="#e24832" stroke-width="2"/>
  <circle cx="225" cy="60.900000000000006" r="2.8" fill="#fbf3de" stroke="#e24832" stroke-width="2"/>
  <circle cx="250" cy="65.85000000000001" r="2.8" fill="#fbf3de" stroke="#e24832" stroke-width="2"/>
  <circle cx="275" cy="52.650000000000006" r="2.8" fill="#fbf3de" stroke="#e24832" stroke-width="2"/>
  <circle cx="300" cy="46.05000000000001" r="2.8" fill="#fbf3de" stroke="#e24832" stroke-width="2"/>
  <circle cx="325" cy="37.80000000000001" r="2.8" fill="#fbf3de" stroke="#e24832" stroke-width="2"/>
  <text x="276" y="31" class="note" text-anchor="start">Rate</text>
  <line x1="245" y1="27" x2="268" y2="27" class="red"/>
</svg>
