<?xml version="1.0" encoding="utf-8"?>
<svg class="chart-svg woodblock-chart" data-style="kinpeki-ukiyo" role="img" aria-labelledby="chart-9-title chart-9-desc" xmlns="http://www.w3.org/2000/svg" viewBox="0 0 360 190" width="360" height="190">
  <style>:root{--paper:#fbf3de;--ink:#181a1b;--muted:#655f53;--rule:#c8b990;--vermilion:#e24832;--aizuri:#0069a6;--rokusho:#3a8a5c;--kuchiba:#e2a228;--fuji:#8d4b8e;--gold:#e0b53a}
*{vector-effect:non-scaling-stroke}
text{font-family:"Source Han Sans SC","Noto Sans CJK SC","PingFang SC","Microsoft YaHei",sans-serif;fill:var(--ink)}
.label,.value,.value-light,.big-value,.note,.tick,.axis-title{font-size:12px}
.value,.big-value{font-weight:700;font-variant-numeric:tabular-nums}.big-value{font-size:18px}
.value-light{font-weight:700;fill:var(--paper)}.tick,.axis-title{fill:var(--muted)}
.axis{stroke:var(--ink);stroke-width:1}.grid{stroke:var(--rule);stroke-width:.8;stroke-dasharray:2 5;opacity:.7}
.reference,.stem{stroke:var(--ink);stroke-width:1.1}.red{stroke:var(--vermilion);stroke-width:2.5;stroke-dasharray:8 5}.blue{stroke:var(--aizuri);stroke-width:2.5}.green{stroke:var(--rokusho);stroke-width:2.5;stroke-dasharray:2 4}.gold{stroke:var(--kuchiba);stroke-width:2.5;stroke-dasharray:1 4}
[fill="#0069a6"],[fill="#e24832"],[fill="#3a8a5c"],[fill="#e2a228"],[fill="#8d4b8e"],[fill="#8cc7df"],[fill="#f5a08b"],[fill="#9ed0ab"]{stroke:var(--ink);stroke-width:.65;stroke-linejoin:round;paint-order:stroke fill}
[stroke="#e24832"]{stroke-dasharray:8 5}[stroke="#3a8a5c"]{stroke-dasharray:2 4}[stroke="#e2a228"]{stroke-dasharray:1 4}
path,polyline,line{stroke-linecap:round;stroke-linejoin:round}</style><rect class="ukiyo-paper" x="0" y="0" width="360" height="190" fill="#fbf3de"/><rect class="ukiyo-paper" x="0" y="0" width="360" height="190" fill="#fbf3de"/><rect class="ukiyo-paper" x="0" y="0" width="360" height="190" fill="#fbf3de"/>
  <title id="chart-9-title">カレンダーヒートマップ</title>
  <desc id="chart-9-desc">高値・低値は一年のどの日に集中するか？</desc>
  <rect x="38" y="31" width="19" height="14" fill="#ead49a"/>
  <rect x="63" y="31" width="19" height="14" fill="#9ed0ab"/>
  <rect x="88" y="31" width="19" height="14" fill="#b9d2dc"/>
  <rect x="113" y="31" width="19" height="14" fill="#8cc7df"/>
  <rect x="138" y="31" width="19" height="14" fill="#4f8da4"/>
  <rect x="163" y="31" width="19" height="14" fill="#0069a6"/>
  <rect x="188" y="31" width="19" height="14" fill="#ead49a"/>
  <rect x="213" y="31" width="19" height="14" fill="#9ed0ab"/>
  <rect x="238" y="31" width="19" height="14" fill="#b9d2dc"/>
  <rect x="263" y="31" width="19" height="14" fill="#8cc7df"/>
  <rect x="288" y="31" width="19" height="14" fill="#4f8da4"/>
  <rect x="313" y="31" width="19" height="14" fill="#0069a6"/>
  <rect x="38" y="49" width="19" height="14" fill="#8cc7df"/>
  <rect x="63" y="49" width="19" height="14" fill="#4f8da4"/>
  <rect x="88" y="49" width="19" height="14" fill="#0069a6"/>
  <rect x="113" y="49" width="19" height="14" fill="#ead49a"/>
  <rect x="138" y="49" width="19" height="14" fill="#9ed0ab"/>
  <rect x="163" y="49" width="19" height="14" fill="#b9d2dc"/>
  <rect x="188" y="49" width="19" height="14" fill="#8cc7df"/>
  <rect x="213" y="49" width="19" height="14" fill="#4f8da4"/>
  <rect x="238" y="49" width="19" height="14" fill="#0069a6"/>
  <rect x="263" y="49" width="19" height="14" fill="#ead49a"/>
  <rect x="288" y="49" width="19" height="14" fill="#9ed0ab"/>
  <rect x="313" y="49" width="19" height="14" fill="#b9d2dc"/>
  <rect x="38" y="67" width="19" height="14" fill="#ead49a"/>
  <rect x="63" y="67" width="19" height="14" fill="#9ed0ab"/>
  <rect x="88" y="67" width="19" height="14" fill="#b9d2dc"/>
  <rect x="113" y="67" width="19" height="14" fill="#8cc7df"/>
  <rect x="138" y="67" width="19" height="14" fill="#4f8da4"/>
  <rect x="163" y="67" width="19" height="14" fill="#0069a6"/>
  <rect x="188" y="67" width="19" height="14" fill="#ead49a"/>
  <rect x="213" y="67" width="19" height="14" fill="#9ed0ab"/>
  <rect x="238" y="67" width="19" height="14" fill="#b9d2dc"/>
  <rect x="263" y="67" width="19" height="14" fill="#8cc7df"/>
  <rect x="288" y="67" width="19" height="14" fill="#4f8da4"/>
  <rect x="313" y="67" width="19" height="14" fill="#0069a6"/>
  <rect x="38" y="85" width="19" height="14" fill="#8cc7df"/>
  <rect x="63" y="85" width="19" height="14" fill="#4f8da4"/>
  <rect x="88" y="85" width="19" height="14" fill="#0069a6"/>
  <rect x="113" y="85" width="19" height="14" fill="#ead49a"/>
  <rect x="138" y="85" width="19" height="14" fill="#9ed0ab"/>
  <rect x="163" y="85" width="19" height="14" fill="#b9d2dc"/>
  <rect x="188" y="85" width="19" height="14" fill="#8cc7df"/>
  <rect x="213" y="85" width="19" height="14" fill="#4f8da4"/>
  <rect x="238" y="85" width="19" height="14" fill="#0069a6"/>
  <rect x="263" y="85" width="19" height="14" fill="#ead49a"/>
  <rect x="288" y="85" width="19" height="14" fill="#9ed0ab"/>
  <rect x="313" y="85" width="19" height="14" fill="#b9d2dc"/>
  <rect x="38" y="103" width="19" height="14" fill="#ead49a"/>
  <rect x="63" y="103" width="19" height="14" fill="#9ed0ab"/>
  <rect x="88" y="103" width="19" height="14" fill="#b9d2dc"/>
  <rect x="113" y="103" width="19" height="14" fill="#8cc7df"/>
  <rect x="138" y="103" width="19" height="14" fill="#4f8da4"/>
  <rect x="163" y="103" width="19" height="14" fill="#0069a6"/>
  <rect x="188" y="103" width="19" height="14" fill="#ead49a"/>
  <rect x="213" y="103" width="19" height="14" fill="#9ed0ab"/>
  <rect x="238" y="103" width="19" height="14" fill="#b9d2dc"/>
  <rect x="263" y="103" width="19" height="14" fill="#8cc7df"/>
  <rect x="288" y="103" width="19" height="14" fill="#4f8da4"/>
  <rect x="313" y="103" width="19" height="14" fill="#0069a6"/>
  <rect x="38" y="121" width="19" height="14" fill="#8cc7df"/>
  <rect x="63" y="121" width="19" height="14" fill="#4f8da4"/>
  <rect x="88" y="121" width="19" height="14" fill="#0069a6"/>
  <rect x="113" y="121" width="19" height="14" fill="#ead49a" stroke="#e24832" stroke-width="2"/>
  <rect x="138" y="121" width="19" height="14" fill="#9ed0ab"/>
  <rect x="163" y="121" width="19" height="14" fill="#b9d2dc"/>
  <rect x="188" y="121" width="19" height="14" fill="#8cc7df"/>
  <rect x="213" y="121" width="19" height="14" fill="#4f8da4"/>
  <rect x="238" y="121" width="19" height="14" fill="#0069a6"/>
  <rect x="263" y="121" width="19" height="14" fill="#ead49a"/>
  <rect x="288" y="121" width="19" height="14" fill="#9ed0ab"/>
  <rect x="313" y="121" width="19" height="14" fill="#b9d2dc"/>
  <rect x="38" y="139" width="19" height="14" fill="#ead49a"/>
  <rect x="63" y="139" width="19" height="14" fill="#9ed0ab"/>
  <rect x="88" y="139" width="19" height="14" fill="#b9d2dc"/>
  <rect x="113" y="139" width="19" height="14" fill="#8cc7df"/>
  <rect x="138" y="139" width="19" height="14" fill="#4f8da4"/>
  <rect x="163" y="139" width="19" height="14" fill="#0069a6"/>
  <rect x="188" y="139" width="19" height="14" fill="#ead49a"/>
  <rect x="213" y="139" width="19" height="14" fill="#9ed0ab"/>
  <rect x="238" y="139" width="19" height="14" fill="#b9d2dc"/>
  <rect x="263" y="139" width="19" height="14" fill="#8cc7df"/>
  <rect x="288" y="139" width="19" height="14" fill="#4f8da4"/>
  <rect x="313" y="139" width="19" height="14" fill="#0069a6"/>
  <text x="26" y="42" class="tick" text-anchor="middle">月</text>
  <text x="26" y="60" class="tick" text-anchor="middle">火</text>
  <text x="26" y="78" class="tick" text-anchor="middle">水</text>
  <text x="26" y="96" class="tick" text-anchor="middle">木</text>
  <text x="26" y="114" class="tick" text-anchor="middle">金</text>
  <text x="26" y="132" class="tick" text-anchor="middle">土</text>
  <text x="26" y="150" class="tick" text-anchor="middle">日</text>
  <text x="38" y="175" class="axis-title" text-anchor="start">第1週</text>
  <text x="338" y="175" class="axis-title" text-anchor="end">第12週</text>
</svg>
