<?xml version="1.0" encoding="utf-8"?>
<svg class="chart-svg woodblock-chart" data-style="kinpeki-ukiyo" role="img" aria-labelledby="t-折线图示例 d-折线图示例" xmlns="http://www.w3.org/2000/svg" viewBox="0 0 360 190" width="360" height="190">
  <style>:root{--paper:#fbf3de;--ink:#181a1b;--muted:#655f53;--rule:#c8b990;--vermilion:#e24832;--aizuri:#0069a6;--rokusho:#3a8a5c;--kuchiba:#e2a228;--fuji:#8d4b8e;--gold:#e0b53a}
*{vector-effect:non-scaling-stroke}
text{font-family:"Source Han Sans SC","Noto Sans CJK SC","PingFang SC","Microsoft YaHei",sans-serif;fill:var(--ink)}
.label,.value,.value-light,.big-value,.note,.tick,.axis-title{font-size:12px}
.value,.big-value{font-weight:700;font-variant-numeric:tabular-nums}.big-value{font-size:18px}
.value-light{font-weight:700;fill:var(--paper)}.tick,.axis-title{fill:var(--muted)}
.axis{stroke:var(--ink);stroke-width:1}.grid{stroke:var(--rule);stroke-width:.8;stroke-dasharray:2 5;opacity:.7}
.reference,.stem{stroke:var(--ink);stroke-width:1.1}.red{stroke:var(--vermilion);stroke-width:2.5;stroke-dasharray:8 5}.blue{stroke:var(--aizuri);stroke-width:2.5}.green{stroke:var(--rokusho);stroke-width:2.5;stroke-dasharray:2 4}.gold{stroke:var(--kuchiba);stroke-width:2.5;stroke-dasharray:1 4}
[fill="#0069a6"],[fill="#e24832"],[fill="#3a8a5c"],[fill="#e2a228"],[fill="#8d4b8e"],[fill="#8cc7df"],[fill="#f5a08b"],[fill="#9ed0ab"]{stroke:var(--ink);stroke-width:.65;stroke-linejoin:round;paint-order:stroke fill}
[stroke="#e24832"]{stroke-dasharray:8 5}[stroke="#3a8a5c"]{stroke-dasharray:2 4}[stroke="#e2a228"]{stroke-dasharray:1 4}
path,polyline,line{stroke-linecap:round;stroke-linejoin:round}</style><rect class="ukiyo-paper" x="0" y="0" width="360" height="190" fill="#fbf3de"/><rect class="ukiyo-paper" x="0" y="0" width="360" height="190" fill="#fbf3de"/><rect class="ukiyo-paper" x="0" y="0" width="360" height="190" fill="#fbf3de"/>
  <title id="t-折线图示例">折线图示例</title>
  <desc id="d-折线图示例">十二个时间点呈现连续趋势。</desc>
  <line x1="38" y1="158" x2="340" y2="158" class="axis"/>
  <line x1="38" y1="20" x2="38" y2="158" class="axis"/>
  <text x="189" y="184" class="axis-title" text-anchor="middle" data-axis="x">月份</text>
  <text x="12" y="90" class="axis-title" text-anchor="middle" transform="rotate(-90 12 90)" data-axis="y">指数</text>
  <polyline points="44,95.6 70,90.5 96,92.2 122,80.3 148,75.2 174,78.60000000000001 200,65 226,58.2 252,63.3 278,49.7 304,42.900000000000006 330,34.400000000000006" fill="none" stroke="#0069a6" stroke-width="3"/>
  <circle cx="44" cy="95.6" r="2.5" fill="#0069a6"/>
  <circle cx="70" cy="90.5" r="2.5" fill="#0069a6"/>
  <circle cx="96" cy="92.2" r="2.5" fill="#0069a6"/>
  <circle cx="122" cy="80.3" r="2.5" fill="#0069a6"/>
  <circle cx="148" cy="75.2" r="2.5" fill="#0069a6"/>
  <circle cx="174" cy="78.60000000000001" r="2.5" fill="#0069a6"/>
  <circle cx="200" cy="65" r="2.5" fill="#0069a6"/>
  <circle cx="226" cy="58.2" r="2.5" fill="#0069a6"/>
  <circle cx="252" cy="63.3" r="2.5" fill="#0069a6"/>
  <circle cx="278" cy="49.7" r="2.5" fill="#0069a6"/>
  <circle cx="304" cy="42.900000000000006" r="2.5" fill="#0069a6"/>
  <circle cx="330" cy="34.400000000000006" r="5" fill="#e24832"/>
  <text x="336" y="29" class="value" text-anchor="end">68</text>
</svg>
